<svg width="22" height="27" viewBox="0 0 22 27" fill="none" xmlns="http://www.w3.org/2000/svg">
<path fill-rule="evenodd" clip-rule="evenodd" d="M10.425 25.9387L10.5125 25.9888L10.5475 26.0087C10.6863 26.0838 10.8416 26.1231 10.9994 26.1231C11.1572 26.1231 11.3125 26.0838 11.4513 26.0087L11.4862 25.99L11.575 25.9387C12.0639 25.6489 12.5409 25.3394 13.005 25.0112C14.2063 24.1631 15.3288 23.2084 16.3588 22.1587C18.7888 19.6712 21.3125 15.9338 21.3125 11.125C21.3125 8.38996 20.226 5.76693 18.292 3.83296C16.3581 1.89899 13.735 0.8125 11 0.8125C8.26496 0.8125 5.64193 1.89899 3.70796 3.83296C1.77399 5.76693 0.6875 8.38996 0.6875 11.125C0.6875 15.9325 3.2125 19.6712 5.64125 22.1587C6.6708 23.2083 7.79284 24.163 8.99375 25.0112C9.45821 25.3395 9.93568 25.6489 10.425 25.9387ZM11 14.875C11.9946 14.875 12.9484 14.4799 13.6517 13.7767C14.3549 13.0734 14.75 12.1196 14.75 11.125C14.75 10.1304 14.3549 9.17661 13.6517 8.47335C12.9484 7.77009 11.9946 7.375 11 7.375C10.0054 7.375 9.05161 7.77009 8.34835 8.47335C7.64509 9.17661 7.25 10.1304 7.25 11.125C7.25 12.1196 7.64509 13.0734 8.34835 13.7767C9.05161 14.4799 10.0054 14.875 11 14.875Z" fill="#D8F3DC"/>
</svg>
